<svg width="20" height="12" viewBox="0 0 20 12" fill="none" xmlns="http://www.w3.org/2000/svg">
<path d="M0.454072 0.939668C0.735364 0.658462 1.11683 0.500488 1.51457 0.500488C1.91232 0.500488 2.29378 0.658462 2.57507 0.939668L10.0001 8.36467L17.4251 0.939668C17.708 0.666431 18.0869 0.515239 18.4802 0.518656C18.8735 0.522074 19.2497 0.679828 19.5278 0.95794C19.8059 1.23605 19.9637 1.61227 19.9671 2.00557C19.9705 2.39886 19.8193 2.77776 19.5461 3.06067L11.0606 11.5462C10.7793 11.8274 10.3978 11.9853 10.0001 11.9853C9.60233 11.9853 9.22086 11.8274 8.93957 11.5462L0.454072 3.06067C0.172866 2.77938 0.0148926 2.39791 0.0148926 2.00017C0.0148926 1.60242 0.172866 1.22096 0.454072 0.939668Z" fill="#C79002"/>
</svg>
