<svg xmlns="http://www.w3.org/2000/svg" xml:space="preserve" fill-rule="evenodd" clip-rule="evenodd" image-rendering="optimizeQuality" shape-rendering="geometricPrecision" text-rendering="geometricPrecision" viewBox="0 0 32 32">
  <path fill="#e6e4c4" fill-rule="nonzero" d="M28 27h-6V6c0-1-1-2-2-2s-2 0-3 1c0 1 1 1 1 2v19h1v1h-6V6c0-1-1-2-2-2s-1 0-2 1v21h1v1H3v-1h1V4H3V3h6v1c1-1 2-1 3-1 2 0 3 0 4 1 1-1 3-1 4-1 3 0 5 1 5 4v19h1v1zm-4-1V6c0-1-1-2-2-3 1 0 1 1 1 2v20h1zm-8 0V6c0-1-1-2-2-3 1 0 1 1 1 2v20h1zm-8 0V4H7v22h1z"/>
</svg>
